<svg version="1.1" id="Layer_1" xmlns="http://www.w3.org/2000/svg" xmlns:xlink="http://www.w3.org/1999/xlink" x="0px" y="0px"
	 width="100%" viewBox="0 0 517 483" enable-background="new 0 0 517 483" xml:space="preserve">
<path fill="#000000" opacity="1.000000" stroke="none" 
	d="
M518.000000,176.000000 
	C518.000000,278.999969 518.000000,381.499969 518.000000,483.999939 
	C345.666718,483.999969 173.333466,483.999969 1.000148,484.000000 
	C1.000098,323.000092 1.000098,162.000214 1.000049,1.000234 
	C173.333191,1.000156 345.666382,1.000156 517.999756,1.000078 
	C518.000000,59.166668 518.000000,117.333336 518.000000,176.000000 
M389.791595,143.620316 
	C389.443176,143.744293 389.094727,143.868286 388.496094,143.950836 
	C388.496094,143.950836 388.243347,143.930176 387.775757,143.353851 
	C386.946381,145.199295 386.116974,147.044724 385.170990,149.699982 
	C385.107666,150.789108 385.044342,151.878220 384.388428,153.422897 
	C384.340118,154.902039 384.291779,156.381180 384.124603,158.644714 
	C384.053284,159.700043 383.981934,160.755386 383.264252,162.306473 
	C384.190002,167.182297 385.115723,172.058136 386.071136,177.617737 
	C386.096527,178.073273 386.121887,178.528793 386.082611,179.726807 
	C386.313141,180.337799 386.564392,180.941879 386.771118,181.560806 
	C390.837494,193.734894 399.910217,200.128433 411.920258,202.663727 
	C413.716278,203.042877 417.272675,201.466156 417.908203,199.925385 
	C422.091187,189.783920 422.223816,179.527374 417.056671,169.313400 
	C417.056671,169.313400 416.996155,169.089325 416.861298,168.556854 
	C416.571808,168.351135 416.282349,168.145416 415.984070,168.008408 
	C415.984070,168.008408 416.053070,168.014618 415.864441,167.495422 
	C415.575012,167.275375 415.285583,167.055328 414.987549,166.129318 
	C412.713348,163.083176 410.439178,160.037048 407.791107,156.432999 
	C406.865204,155.927170 405.939301,155.421326 405.019745,154.992401 
	C405.019745,154.992401 405.096649,154.985931 405.276520,154.294281 
	C404.523010,153.452515 403.769470,152.610748 402.614838,151.399033 
	C402.090607,151.261215 401.566376,151.123398 400.726929,150.368515 
	C398.159485,148.881241 395.592041,147.393951 393.002930,145.981506 
	C393.002930,145.981506 393.077820,146.003067 392.912323,145.497116 
	C392.606232,145.351212 392.300171,145.205307 391.618500,145.006744 
	C391.618500,145.006744 391.240021,144.982285 391.026337,144.436859 
	C390.689972,144.273590 390.353577,144.110336 390.007874,144.001495 
	C390.007874,144.001495 390.037262,143.954086 389.791595,143.620316 
M116.052559,280.992798 
	C116.052559,280.992798 116.103722,280.950104 116.072655,280.097717 
	C115.002274,275.766632 113.931892,271.435547 112.864647,266.407349 
	C112.853561,265.942902 112.842476,265.478424 112.970825,264.123657 
	C112.298820,256.565002 110.892860,248.984802 111.114212,241.452408 
	C111.520706,227.619598 112.885933,213.814957 114.193680,199.308853 
	C119.043495,181.595627 124.860741,164.345123 134.350189,148.382370 
	C146.046478,128.707367 160.497467,111.623207 178.415573,97.399521 
	C191.912781,86.685211 206.757477,78.405754 222.969818,72.687714 
	C230.524887,70.023071 238.338821,68.092392 246.784622,65.902290 
	C252.183411,65.236473 257.582214,64.570656 263.928070,63.960125 
	C272.242126,63.931576 280.556213,63.903030 289.576324,64.258949 
	C294.710144,64.775742 299.843964,65.292534 305.427002,65.957130 
	C305.427002,65.957130 305.885864,66.071594 306.436157,66.571884 
	C312.675018,67.823509 319.175293,68.353912 325.090546,70.498260 
	C333.650970,73.601555 341.895386,77.656464 350.072540,81.712723 
	C356.981964,85.140137 363.837891,88.786980 370.296692,92.984222 
	C379.215546,98.780159 387.721344,105.209930 396.457245,111.291779 
	C397.418549,111.961021 398.728577,112.129372 399.876862,112.530037 
	C399.980347,111.208748 400.432922,109.802307 400.134491,108.579071 
	C396.241364,92.621674 384.330963,82.682465 372.398865,73.154907 
	C365.086731,67.316322 356.617157,62.897591 348.539948,58.053646 
	C335.351898,50.144676 320.853210,45.324642 306.213531,41.069561 
	C300.467865,39.399555 294.036621,39.967403 288.398346,38.079941 
	C281.613556,35.808685 275.060486,34.787762 267.199585,36.121773 
	C262.753784,35.759224 258.271027,34.842049 253.868927,35.135292 
	C239.058060,36.121918 224.122223,36.624756 209.530563,39.076519 
	C197.486816,41.100166 185.863251,45.624573 173.521591,49.138397 
	C173.321579,49.425026 173.121567,49.711655 172.408997,50.150143 
	C172.239136,50.204029 172.069275,50.257915 171.174103,50.130409 
	C167.427338,51.747677 163.680588,53.364948 159.998322,54.993908 
	C159.998322,54.993908 159.998917,54.928364 159.247910,54.952477 
	C156.454041,56.297947 153.660156,57.643421 150.526901,58.948189 
	C150.526901,58.948189 150.185684,58.968517 149.420746,58.946205 
	C145.881149,60.955978 142.341537,62.965755 138.453552,65.151230 
	C138.235901,65.307373 138.076172,65.509331 137.283035,65.998253 
	C134.233521,67.550560 130.953186,68.776810 128.189606,70.733055 
	C124.232140,73.534409 120.652153,76.869026 116.978783,79.972466 
	C116.978783,79.972466 116.968498,79.905357 116.217194,79.879333 
	C113.529510,81.641884 110.615997,83.141975 108.200310,85.220627 
	C102.874741,89.803169 97.798729,94.675827 92.623856,99.433342 
	C89.751694,102.073860 86.546806,104.440971 84.084160,107.420792 
	C78.181938,114.562561 72.308937,121.772263 67.053459,129.388779 
	C63.753830,134.170776 61.593491,139.738892 58.989487,144.949844 
	C58.989487,144.949844 58.932777,144.912994 58.189251,144.835861 
	C55.443539,149.186356 52.135788,153.287323 50.070274,157.939804 
	C45.897503,167.338791 42.016586,176.908966 38.749271,186.654617 
	C36.325531,193.884064 35.060024,201.501831 33.162117,209.625610 
	C33.109550,210.081863 33.056988,210.538132 32.511112,211.304321 
	C32.390141,211.859177 32.269169,212.414017 32.078972,213.697174 
	C32.040363,214.427689 32.001759,215.158203 31.373199,216.381439 
	C30.981041,218.920822 30.588881,221.460220 30.146530,224.834137 
	C30.242645,225.941116 30.338760,227.048096 30.166946,228.931824 
	C29.443184,233.691620 28.719421,238.451401 27.191513,243.509659 
	C27.367006,252.660828 27.542500,261.811981 28.180223,271.672180 
	C28.797018,275.435028 29.413811,279.197845 30.075499,283.777771 
	C30.122211,284.867340 30.168924,285.956909 30.109901,287.900940 
	C30.063560,289.231567 29.741512,290.621368 30.012495,291.883881 
	C33.704563,309.085388 38.409595,325.999207 45.410824,342.173462 
	C52.576897,358.728577 62.486160,373.517487 73.696114,387.684631 
	C83.094681,399.562561 93.917892,409.847565 105.259315,419.586517 
	C113.280205,426.474060 122.138489,432.555481 131.225525,437.989044 
	C142.207230,444.555450 153.420837,451.087769 165.277054,455.742340 
	C178.163666,460.801483 191.748627,464.411713 205.315872,467.312439 
	C218.355667,470.100433 231.762314,471.172516 245.001831,472.997559 
	C245.001831,472.997559 244.998413,472.993103 245.201797,473.216309 
	C245.201797,473.216309 245.609436,473.278961 245.609436,473.278961 
	C245.609436,473.278961 245.929993,472.977722 246.333908,473.069580 
	C246.333908,473.069580 246.733643,473.178223 247.169373,473.820770 
	C254.017014,471.281769 261.338989,469.577942 267.606903,466.018188 
	C278.424561,459.874451 288.966339,453.077423 298.873749,445.565247 
	C304.293732,441.455658 308.176666,435.318909 313.131256,429.524536 
	C315.642181,426.828857 318.153107,424.133179 321.420837,420.625000 
	C318.696533,420.327545 317.563751,420.099792 316.430267,420.096344 
	C305.824158,420.063904 295.217957,420.072235 284.611755,420.059021 
	C283.947601,420.058197 283.264130,420.061768 282.622375,419.917542 
	C268.720764,416.792542 254.228714,416.343933 241.039246,409.963623 
	C230.156342,404.699127 218.492538,400.907898 208.013382,394.981079 
	C189.877274,384.723633 173.697052,371.836426 159.700790,356.126862 
	C146.865982,341.720886 136.339676,325.965729 128.031464,308.638397 
	C125.051208,302.422852 122.117531,296.184937 119.113678,289.169952 
	C118.095879,286.422180 117.078072,283.674377 116.052559,280.992798 
M317.974792,445.971954 
	C317.974792,445.971954 317.952850,445.948730 317.289978,446.151398 
	C313.834076,449.426422 310.378143,452.701416 306.989380,455.980255 
	C306.989380,455.980255 306.984955,455.913116 306.279694,455.962219 
	C304.838440,457.300018 303.397217,458.637817 301.531403,459.981628 
	C301.531403,459.981628 301.107544,460.007263 300.398315,460.090973 
	C295.144928,463.539551 289.891510,466.988129 284.638092,470.436707 
	C284.943695,471.205414 285.249298,471.974091 285.554901,472.742798 
	C298.298157,470.701813 311.281891,469.592957 323.723572,466.383057 
	C339.149231,462.403290 354.206146,456.910034 369.250336,451.584625 
	C374.139069,449.854126 378.487396,446.597015 383.015381,444.029999 
	C383.015381,444.029999 383.014221,444.097961 383.768372,444.079193 
	C389.861877,440.399719 395.955353,436.720245 401.998138,433.057007 
	C401.998138,433.057007 402.047546,433.077362 402.769012,433.098480 
	C404.358002,431.979614 405.986542,430.912537 407.529205,429.733093 
	C414.762909,424.202332 421.972992,418.640717 429.784912,412.768707 
	C430.563568,411.868866 431.342224,410.969025 432.088257,410.012451 
	C432.088257,410.012451 432.037537,410.053741 432.633179,409.701202 
	C439.207153,403.368256 446.282501,397.468445 452.225128,390.590027 
	C459.256409,382.451477 465.787445,373.776947 471.625824,364.746735 
	C475.754883,358.360260 478.372467,350.996613 482.028473,343.446106 
	C483.723969,340.429993 485.752960,337.551025 487.059265,334.374847 
	C493.996582,317.507385 497.421753,299.752319 499.800171,281.772766 
	C500.044342,279.927032 499.271881,277.946777 498.991180,275.598572 
	C498.991180,275.598572 499.030548,275.169525 499.551605,275.111725 
	C499.780029,274.657227 500.008423,274.202728 500.179138,273.438202 
	C500.179138,273.438202 500.031403,273.159576 500.814423,272.736725 
	C500.814423,267.531158 500.814423,262.325592 500.814423,257.138031 
	C494.941559,256.561707 496.184326,260.769287 495.841400,264.687561 
	C494.531189,267.777191 493.220978,270.866821 491.969604,273.991791 
	C491.969604,273.991791 491.945831,273.927429 491.340485,274.246124 
	C489.315430,276.365265 487.163574,278.379028 485.294769,280.627991 
	C482.407623,284.102356 479.321167,287.508881 477.067627,291.379852 
	C475.386261,294.267975 475.133148,297.947754 473.810944,301.092957 
	C471.004028,307.769684 467.914703,314.327637 464.968811,320.961731 
	C464.968811,320.961731 464.930573,320.961273 464.362793,321.366638 
	C459.160522,329.416107 454.246277,337.672028 448.668884,345.452576 
	C443.812683,352.227020 438.207733,358.464752 432.996765,365.000000 
	C432.996765,365.000000 432.941956,364.932678 432.329712,365.242981 
	C430.082245,367.317535 427.804382,369.360321 425.594818,371.474487 
	C422.676697,374.266663 419.812134,377.114777 417.001160,379.949432 
	C417.001160,379.949432 416.933899,379.910095 416.241119,380.046143 
	C410.146912,384.335510 404.085541,388.672577 397.946838,392.897278 
	C393.937836,395.656342 389.816620,398.252380 385.372040,401.018707 
	C385.372040,401.018707 385.005951,401.141174 384.337891,401.346954 
	C379.410706,403.539215 374.483490,405.731506 368.975372,408.182251 
	C369.133850,406.558105 368.914551,405.421936 369.363983,404.705017 
	C376.572906,393.205750 379.913177,380.211853 384.124054,367.526794 
	C384.938232,365.074188 387.338623,362.872894 389.507935,361.207947 
	C393.011536,358.519012 397.055603,356.545502 400.651489,353.963531 
	C413.119202,345.010956 423.101715,333.871307 430.039490,319.563812 
	C430.039490,319.563812 430.215546,319.130920 430.801147,318.751404 
	C431.188782,317.494446 431.576447,316.237518 432.004852,314.585724 
	C432.004852,314.585724 432.063416,314.193115 432.797668,314.064331 
	C435.591278,309.505096 432.297150,308.178375 428.799194,306.551849 
	C428.635162,306.338989 428.420685,306.255310 427.989319,305.705536 
	C427.677826,305.465302 427.366333,305.225037 427.086639,304.933624 
	C427.086639,304.933624 427.030914,304.910889 426.814880,304.212189 
	C424.839050,303.370270 422.863220,302.528351 421.347809,301.882629 
	C418.421295,306.664703 415.999603,310.725372 413.474304,314.720551 
	C410.667725,319.160736 407.766724,323.541260 404.964996,327.998108 
	C404.964996,327.998108 404.935059,327.927368 404.328552,328.206787 
	C401.507141,331.013733 398.685730,333.820648 395.733917,336.706818 
	C395.733917,336.706818 395.811646,336.838104 395.122681,336.787201 
	C393.369171,337.939301 391.615692,339.091370 390.223358,340.006165 
	C388.822632,329.632050 387.406036,319.853149 386.229065,310.045532 
	C385.804688,306.509277 385.879486,302.904327 385.859222,299.329987 
	C385.806000,289.929871 385.825684,280.529358 385.884796,270.337372 
	C385.852692,269.544281 385.820618,268.751190 385.907410,267.167267 
	C384.661896,262.727692 383.416351,258.288116 381.788818,253.265457 
	C378.537659,247.176498 375.286530,241.087540 372.262451,234.495636 
	C371.885468,233.587967 371.652863,232.581467 371.109528,231.787659 
	C364.556824,222.214493 356.650757,214.018555 347.203400,207.177734 
	C337.744537,200.328598 327.937836,194.253082 316.736755,190.781433 
	C315.444702,190.380981 312.495667,191.279175 312.288147,192.084061 
	C310.941925,197.304962 310.142395,202.666824 309.049652,208.824188 
	C306.403931,222.915390 306.595428,236.998947 309.063873,251.784134 
	C309.341980,252.884140 309.620087,253.984161 309.961517,255.713669 
	C309.996643,256.133972 310.031769,256.554291 310.046295,257.766815 
	C312.401550,268.850922 316.782898,279.174408 323.495422,288.194489 
	C330.910492,298.158691 340.315521,306.203186 351.556274,311.689758 
	C355.507477,313.618286 360.021179,314.394409 364.278015,315.696747 
	C364.566376,315.218384 364.854706,314.740021 365.143036,314.261688 
	C354.793396,286.023590 343.773834,258.011566 335.245270,229.116089 
	C345.713684,237.236801 353.545898,247.420242 359.844696,258.426056 
	C366.009888,269.198364 371.361023,280.692413 372.465881,293.414825 
	C372.998352,299.546600 372.752655,305.745941 372.117249,312.367004 
	C372.132507,321.859619 372.147736,331.352264 372.017639,341.756714 
	C371.980225,344.086029 372.348206,346.508118 371.839813,348.729645 
	C368.453735,363.525726 364.466064,378.144836 357.962830,391.984436 
	C357.962830,391.984436 357.992859,391.930786 357.316956,391.898376 
	C356.868408,391.937286 356.419830,391.976166 355.351624,391.913544 
	C354.321045,391.243530 353.290466,390.573517 351.880981,389.317841 
	C349.593353,387.863678 347.305725,386.409485 344.993164,384.997467 
	C344.993164,384.997467 345.040161,384.983612 344.714417,384.400146 
	C341.348083,380.935669 337.759796,377.655792 334.680481,373.952667 
	C331.835236,370.531006 328.290527,367.749878 327.746155,362.470154 
	C326.438354,349.785461 323.036591,337.557129 317.745392,325.880096 
	C311.544922,312.196564 301.984985,301.176239 290.363586,291.997986 
	C285.033966,287.788788 278.808868,284.713409 272.397705,280.711243 
	C271.617401,280.116486 270.922821,279.289154 270.042847,278.964783 
	C264.370514,276.873596 258.731689,274.639252 252.937958,272.943665 
	C246.687927,271.114471 240.351196,269.116089 233.924088,268.473297 
	C225.584793,267.639221 217.100708,267.676147 208.712234,268.061859 
	C199.055130,268.505920 189.434006,269.736053 179.798004,270.632996 
	C175.869095,270.998688 175.026047,273.606873 176.197937,276.656067 
	C181.240204,289.775635 186.307114,302.893005 191.747925,315.850372 
	C199.163589,333.510986 209.560135,349.147644 224.614532,361.303223 
	C234.901749,369.609528 246.864136,374.724121 259.531708,377.930573 
	C272.941711,381.324890 286.523529,380.502136 299.975342,377.669312 
	C301.619080,377.323151 304.140259,376.404541 304.391357,375.319855 
	C304.748169,373.778473 303.785187,371.501434 302.661224,370.134888 
	C300.137634,367.066589 297.142822,364.389221 294.384552,361.509888 
	C289.226776,356.125732 284.392853,350.390106 278.891907,345.385834 
	C270.994415,338.201447 262.732147,331.401703 254.406723,324.710175 
	C249.592865,320.841064 244.349121,317.506805 238.885330,313.358032 
	C233.942474,309.871490 228.999603,306.384949 224.003708,302.949310 
	C224.003708,302.949310 224.075485,302.933594 223.824844,302.312469 
	C222.608368,301.194672 221.391876,300.076874 220.175385,298.959076 
	C220.328400,298.538513 220.481415,298.117950 220.634430,297.697388 
	C222.838852,297.894989 225.135361,297.762512 227.231735,298.347382 
	C236.290298,300.874725 245.803619,302.537231 254.184052,306.539886 
	C265.110596,311.758606 275.552338,318.297913 285.382019,325.404144 
	C292.386383,330.467804 299.003662,336.707672 304.030579,343.691681 
	C309.412842,351.169373 314.090637,359.744171 316.612793,368.545959 
	C320.016907,380.425537 324.714020,390.674591 335.092560,397.865570 
	C339.645081,401.019928 343.896362,404.609070 348.936737,408.504974 
	C343.799988,415.505035 338.865356,422.229706 333.992859,428.988068 
	C333.992859,428.988068 333.953186,428.929535 333.344055,429.246124 
	C328.530609,434.364258 323.717133,439.482391 318.450287,444.948608 
	C318.281952,445.278259 318.113617,445.607910 317.974792,445.971954 
M446.575226,283.322845 
	C452.256989,273.862885 458.390167,264.639862 463.511261,254.885559 
	C470.613892,241.357056 473.323853,226.354385 474.824585,211.399261 
	C476.519135,194.513077 473.373749,178.021149 466.027222,162.612381 
	C462.846802,155.941666 458.936676,149.597778 455.043365,143.299957 
	C453.764923,141.231934 451.308197,139.020508 449.183472,142.549042 
	C442.278595,154.015961 437.270752,166.214691 434.170837,179.334152 
	C429.991455,197.022202 432.377991,214.071716 437.811218,230.931107 
	C438.748535,233.839645 441.152130,236.275635 442.878479,238.929886 
	C444.776093,236.774734 446.838196,234.740265 448.529724,232.433975 
	C450.657593,229.532745 452.482391,226.409210 455.174744,222.240829 
	C455.514771,224.664993 455.953888,225.669281 455.717560,226.475571 
	C454.644897,230.135391 453.209167,233.692978 452.218994,237.372101 
	C449.033386,249.208862 443.949615,259.901550 435.933533,269.419647 
	C428.596649,278.131287 429.745758,281.710297 439.857941,285.269440 
	C441.628632,285.892700 444.112610,284.489380 446.575226,283.322845 
M243.091782,118.854385 
	C241.298874,140.380844 259.382324,154.520081 281.250214,150.557770 
	C297.458832,147.620895 306.339447,136.081741 306.725891,119.147240 
	C306.931824,110.123421 304.015778,101.673218 296.856934,95.716896 
	C285.539429,86.300507 273.342438,83.263084 258.925598,89.751030 
	C248.974884,94.229088 241.175201,108.590675 243.091782,118.854385 
M166.580475,221.124542 
	C179.984299,228.183868 194.011826,224.031464 200.982513,213.100784 
	C209.371460,199.946152 205.294388,184.706833 192.198761,176.565140 
	C182.582748,170.586792 164.165405,171.987122 157.707947,185.934570 
	C152.466095,197.256409 152.297684,212.686630 166.580475,221.124542 
z"/>
<path fill="#26561B" opacity="1.000000" stroke="none" 
	d="
M119.162605,289.957245 
	C122.117531,296.184937 125.051208,302.422852 128.031464,308.638397 
	C136.339676,325.965729 146.865982,341.720886 159.700790,356.126862 
	C173.697052,371.836426 189.877274,384.723633 208.013382,394.981079 
	C218.492538,400.907898 230.156342,404.699127 241.039246,409.963623 
	C254.228714,416.343933 268.720764,416.792542 282.622375,419.917542 
	C283.264130,420.061768 283.947601,420.058197 284.611755,420.059021 
	C295.217957,420.072235 305.824158,420.063904 316.430267,420.096344 
	C317.563751,420.099792 318.696533,420.327545 321.420837,420.625000 
	C318.153107,424.133179 315.642181,426.828857 312.628845,429.899170 
	C308.227081,433.572021 304.274048,436.809174 300.438110,440.179626 
	C287.343719,451.685059 273.130554,461.418610 256.961609,468.157898 
	C253.462646,469.616272 250.138367,471.493774 246.733643,473.178223 
	C246.733643,473.178223 246.333908,473.069580 245.899200,473.032928 
	C245.464478,472.996277 244.998413,472.993103 244.998413,472.993103 
	C244.998413,472.993103 245.001831,472.997559 244.796539,472.692505 
	C238.989120,471.265900 233.410065,470.007050 227.778549,469.060272 
	C221.751404,468.046997 215.532059,467.879089 209.651840,466.356506 
	C199.744980,463.791260 190.147049,460.020721 180.225952,457.525360 
	C162.357071,453.030945 146.919891,443.509735 131.328369,434.410187 
	C122.296982,429.139313 114.015259,422.581818 105.422569,416.565643 
	C104.771744,416.109955 104.347511,415.338318 103.792450,414.737061 
	C97.424301,407.838531 90.930069,401.051666 84.712128,394.020447 
	C77.927765,386.348755 70.748825,378.901520 64.944626,370.523254 
	C59.407497,362.530487 55.435944,353.455627 50.741516,344.875427 
	C48.699818,341.143738 45.952549,337.667938 44.618519,333.707794 
	C42.250126,326.677094 40.842072,319.329346 38.797333,312.181427 
	C36.526146,304.241943 34.009369,296.372192 31.536673,288.491821 
	C31.359575,287.927399 30.668001,287.524475 30.215641,287.046478 
	C30.168924,285.956909 30.122211,284.867340 30.214098,283.050232 
	C30.480021,280.698669 30.705706,279.075409 30.719223,277.450409 
	C30.835329,263.493805 30.942720,249.536926 30.974630,235.579971 
	C30.980286,233.105423 30.624016,230.630066 30.434875,228.155075 
	C30.338760,227.048096 30.242645,225.941116 30.441746,224.224075 
	C31.145693,221.038910 31.554424,218.463821 31.963154,215.888718 
	C32.001759,215.158203 32.040363,214.427689 32.264618,213.106918 
	C32.634983,212.009232 32.819702,211.501816 33.004425,210.994385 
	C33.056988,210.538132 33.109550,210.081863 33.567532,209.223068 
	C34.947868,207.647354 36.427479,206.617065 36.807255,205.275421 
	C38.190414,200.389160 39.046345,195.354065 40.417351,190.463776 
	C41.301281,187.310883 42.724617,184.307770 43.929077,181.246506 
	C46.499680,174.713104 49.012547,168.155624 51.686504,161.664642 
	C54.003490,156.040207 56.510025,150.493851 58.932777,144.912994 
	C58.932777,144.912994 58.989487,144.949844 59.289871,144.853210 
	C60.576305,143.923187 61.855515,143.271942 62.503773,142.228638 
	C70.329865,129.633286 78.587357,117.352188 89.330299,107.013206 
	C95.010612,101.546478 101.218376,96.628212 106.906204,91.168739 
	C110.527588,87.692741 113.632179,83.678337 116.968498,79.905357 
	C116.968498,79.905357 116.978783,79.972466 117.300232,79.899353 
	C123.630844,76.168358 129.676010,72.567200 135.614609,68.798164 
	C136.633957,68.151215 137.199310,66.788940 137.974380,65.757111 
	C138.076172,65.509331 138.235901,65.307373 139.034866,65.070419 
	C143.801086,64.144203 148.156281,63.597713 150.185684,58.968517 
	C150.185684,58.968517 150.526901,58.948189 151.105682,58.957924 
	C154.455963,57.621227 157.227448,56.274799 159.998917,54.928368 
	C159.998917,54.928364 159.998322,54.993908 160.406128,54.987358 
	C165.061874,54.736912 169.793045,55.640339 171.899414,50.311798 
	C172.069275,50.257915 172.239136,50.204029 172.873413,49.938629 
	C173.610275,49.533691 173.848831,49.304932 174.053497,49.040833 
	C185.863251,45.624573 197.486816,41.100166 209.530563,39.076519 
	C224.122223,36.624756 239.058060,36.121918 253.868927,35.135292 
	C258.271027,34.842049 262.753784,35.759224 267.868469,36.457809 
	C274.509491,37.897446 280.442383,39.369785 286.463776,40.011204 
	C293.969666,40.810745 301.126801,42.097935 307.404877,47.587795 
	C309.300171,44.218575 311.847321,44.886875 314.721313,46.923546 
	C317.253448,48.717957 319.851196,50.886566 322.740692,51.611237 
	C328.489807,53.053097 332.464996,59.344185 339.331207,57.566006 
	C339.747040,57.458313 340.546173,58.148399 340.916870,58.651535 
	C346.129272,65.726593 354.140442,68.789749 361.834473,70.948692 
	C368.246094,72.747787 370.459869,77.064926 372.999542,81.753860 
	C373.629028,82.916077 373.228729,84.926521 372.688202,86.306747 
	C372.426636,86.974571 370.352875,87.695297 369.782684,87.328934 
	C368.375305,86.424690 366.277039,84.813553 366.376404,83.650681 
	C366.839630,78.231812 363.337311,78.385445 359.723572,77.993736 
	C355.791229,77.567497 351.273743,77.770058 348.126831,75.860382 
	C341.565063,71.878456 334.694427,69.029243 327.312469,67.538406 
	C320.282135,66.118576 313.256714,63.067986 305.885864,66.071594 
	C305.885864,66.071594 305.427002,65.957130 305.127777,65.531570 
	C303.285461,64.100845 301.800446,62.341766 300.189484,62.217667 
	C292.109283,61.595230 283.998108,61.296684 275.892914,61.142765 
	C274.261200,61.111778 272.608246,62.199978 270.527954,62.830627 
	C267.735260,62.932877 265.379700,62.976673 262.656982,62.843498 
	C256.483765,61.726700 250.710114,60.953674 246.035400,65.829010 
	C238.338821,68.092392 230.524887,70.023071 222.969818,72.687714 
	C206.757477,78.405754 191.912781,86.685211 178.415573,97.399521 
	C160.497467,111.623207 146.046478,128.707367 134.350189,148.382370 
	C124.860741,164.345123 119.043495,181.595627 113.723022,199.806061 
	C108.517204,204.366150 108.814278,210.020950 108.716316,215.412003 
	C108.512268,226.641754 108.121155,237.900894 108.725456,249.098373 
	C109.014900,254.461807 111.397034,259.712311 112.831390,265.013977 
	C112.842476,265.478424 112.853561,265.942902 112.768631,267.067413 
	C113.816315,272.135010 114.960014,276.542572 116.103714,280.950104 
	C116.103722,280.950104 116.052559,280.992798 116.059639,281.367920 
	C117.098679,284.481079 118.130646,287.219177 119.162605,289.957245 
z"/>
<path fill="#27551B" opacity="1.000000" stroke="none" 
	d="
M239.298843,313.931824 
	C244.349121,317.506805 249.592865,320.841064 254.406723,324.710175 
	C262.732147,331.401703 270.994415,338.201447 278.891907,345.385834 
	C284.392853,350.390106 289.226776,356.125732 294.384552,361.509888 
	C297.142822,364.389221 300.137634,367.066589 302.661224,370.134888 
	C303.785187,371.501434 304.748169,373.778473 304.391357,375.319855 
	C304.140259,376.404541 301.619080,377.323151 299.975342,377.669312 
	C286.523529,380.502136 272.941711,381.324890 259.531708,377.930573 
	C246.864136,374.724121 234.901749,369.609528 224.614532,361.303223 
	C209.560135,349.147644 199.163589,333.510986 191.747925,315.850372 
	C186.307114,302.893005 181.240204,289.775635 176.197937,276.656067 
	C175.026047,273.606873 175.869095,270.998688 179.798004,270.632996 
	C189.434006,269.736053 199.055130,268.505920 208.712234,268.061859 
	C217.100708,267.676147 225.584793,267.639221 233.924088,268.473297 
	C240.351196,269.116089 246.687927,271.114471 252.937958,272.943665 
	C258.731689,274.639252 264.370514,276.873596 270.042847,278.964783 
	C270.922821,279.289154 271.617401,280.116486 272.762360,281.259216 
	C276.013397,284.671814 278.420380,288.496552 281.875641,290.221802 
	C292.397003,295.475159 298.771637,305.050659 306.074585,313.319794 
	C311.683380,319.670685 315.297974,328.161560 318.400818,336.238068 
	C321.377502,343.986084 322.650665,352.405151 324.391327,360.589142 
	C324.596283,361.552917 323.022522,362.894989 322.273285,364.061676 
	C321.350677,363.264221 320.081787,362.641022 319.575134,361.634247 
	C318.400391,359.299988 317.976654,356.528503 316.565247,354.383881 
	C312.613953,348.379883 308.579742,342.391327 304.072754,336.804413 
	C300.406189,332.259277 296.345276,327.891632 291.834442,324.210999 
	C287.960602,321.050140 281.586639,321.168610 279.815521,315.018677 
	C279.657166,314.468842 278.112213,314.295624 277.196472,313.991821 
	C275.794067,313.526581 274.141815,313.427551 273.005920,312.605865 
	C262.022125,304.660706 249.503708,300.421600 236.541702,297.187286 
	C232.539124,296.188629 228.614685,294.585388 224.561066,294.169586 
	C220.945877,293.798737 215.676895,293.402588 215.589127,298.656921 
	C215.502762,303.826508 220.579437,302.697083 224.075485,302.933594 
	C224.075485,302.933594 224.003708,302.949310 224.099731,303.281067 
	C226.851547,310.533844 232.994080,312.351562 239.298843,313.931824 
M309.702118,337.399780 
	C310.377197,337.191650 311.052277,336.983551 311.727356,336.775421 
	C311.382996,336.130981 311.038635,335.486572 310.694275,334.842133 
	C310.282990,335.527771 309.871704,336.213379 309.702118,337.399780 
z"/>
<path fill="#27551B" opacity="1.000000" stroke="none" 
	d="
M500.031403,273.159576 
	C500.031403,273.159576 500.179138,273.438202 499.989258,273.814819 
	C499.543121,274.517426 499.286804,274.843475 499.030518,275.169495 
	C499.030548,275.169525 498.991180,275.598572 498.780884,276.128662 
	C498.033325,279.057098 497.431763,281.443207 496.972748,283.856476 
	C496.122101,288.328796 496.372375,293.054413 492.102936,296.426941 
	C490.943756,297.342621 491.422699,300.283203 491.070740,302.280487 
	C490.434174,305.892792 490.541168,309.947937 488.835236,312.970062 
	C487.213043,315.843903 485.906708,318.097656 486.483521,321.564972 
	C487.168976,325.685608 483.969788,329.121307 479.889465,329.788391 
	C478.751892,329.974365 477.106934,330.573639 476.799988,331.395905 
	C476.450104,332.333099 476.955200,334.299561 477.750031,334.832733 
	C481.444519,337.310913 481.072296,340.577454 479.851013,344.330322 
	C479.139954,345.031799 478.570435,345.440277 478.226196,345.989899 
	C470.777344,357.883453 463.723389,370.046844 455.783539,381.601746 
	C451.173920,388.310028 445.096039,394.000732 439.783081,400.238068 
	C437.082336,403.408691 434.612030,406.775574 432.037537,410.053772 
	C432.037537,410.053741 432.088257,410.012451 431.745697,410.017761 
	C430.282867,410.708679 429.162598,411.394257 427.683929,412.162659 
	C424.881622,413.537903 422.212830,414.535614 420.044922,416.189758 
	C416.521912,418.877899 413.251038,421.915131 410.016479,424.956879 
	C407.255951,427.552856 404.696136,430.362335 402.047546,433.077362 
	C402.047546,433.077362 401.998138,433.057007 401.641418,433.081940 
	C394.169067,435.065948 387.582611,437.904602 383.014221,444.097961 
	C383.014221,444.097961 383.015381,444.029999 382.639954,444.035522 
	C380.040253,444.627655 377.736511,445.009338 375.605286,445.835846 
	C365.929047,449.588287 356.379456,453.680817 346.629272,457.224396 
	C339.992188,459.636597 333.162231,461.598999 326.303925,463.300507 
	C317.955078,465.371826 309.495026,467.003815 301.056396,468.692352 
	C300.080780,468.887543 298.461823,468.550720 298.005310,467.875946 
	C297.578583,467.245178 298.129517,465.761414 298.556610,464.787476 
	C299.279785,463.138336 300.244415,461.595032 301.107544,460.007263 
	C301.107544,460.007263 301.531403,459.981628 302.027893,460.056183 
	C304.011261,458.724884 305.498108,457.319000 306.984955,455.913116 
	C306.984955,455.913116 306.989380,455.980255 307.323303,455.941864 
	C312.866791,454.423828 316.536530,451.351562 317.952850,445.948730 
	C317.952850,445.948730 317.974792,445.971954 318.235260,445.991211 
	C318.680756,446.015411 318.865753,446.020325 319.375092,445.917542 
	C326.535950,441.943939 331.469849,436.471344 333.953186,428.929535 
	C333.953186,428.929535 333.992859,428.988068 334.319275,428.935364 
	C342.586761,423.245758 348.568451,416.114838 352.031586,407.212006 
	C343.825470,398.698273 333.640259,393.119110 327.097626,382.494629 
	C329.714142,383.398041 331.303406,383.946777 333.277374,384.628326 
	C333.517059,380.127533 331.316895,378.810120 327.892883,378.732544 
	C323.307037,378.628601 320.478729,373.110352 322.855408,368.784515 
	C326.170471,371.313660 329.438049,373.899750 332.804077,376.350647 
	C336.838928,379.288513 340.957733,382.111084 345.040161,384.983612 
	C345.040161,384.983612 344.993164,384.997467 345.023376,385.354248 
	C345.550171,390.383850 348.198120,391.358765 352.259888,389.903503 
	C353.290466,390.573517 354.321045,391.243530 355.854187,392.076477 
	C356.902130,392.136536 357.447510,392.033661 357.992859,391.930786 
	C357.992859,391.930786 357.962830,391.984436 358.302856,391.910614 
	C361.939697,386.997070 365.236450,382.157379 368.650482,377.145569 
	C369.778351,378.836517 370.984131,380.644257 372.189880,382.451996 
	C372.726410,382.296478 373.262909,382.140961 373.799408,381.985443 
	C373.455383,380.131195 373.336761,378.196869 372.713135,376.442017 
	C371.834167,373.968658 370.353882,371.701782 369.547913,369.211578 
	C368.624542,366.358551 369.455200,363.956360 372.969269,364.398895 
	C377.351349,364.950775 378.455688,362.428375 379.149109,358.701294 
	C380.581421,355.394928 382.559418,353.756348 386.000000,355.375275 
	C385.994690,356.501129 385.990631,357.251678 385.722351,358.125549 
	C384.973969,358.832153 384.489838,359.415497 383.844971,360.321411 
	C380.507202,365.312958 381.838928,372.351990 375.816040,375.606171 
	C375.391235,375.835754 375.780762,377.459747 375.680603,378.423767 
	C375.369049,381.421600 375.445160,384.553345 374.553070,387.374542 
	C373.312744,391.297119 371.500275,395.072998 369.598633,398.738373 
	C368.580841,400.700226 366.778137,402.239655 365.490417,404.082062 
	C364.617523,405.330902 363.149170,407.113434 363.512146,408.052124 
	C364.047882,409.437622 365.845581,410.936920 367.335938,411.234100 
	C371.186218,412.001892 383.110748,406.365417 385.005951,401.141174 
	C385.005951,401.141174 385.372040,401.018707 385.970093,400.976379 
	C388.020233,400.667999 389.677429,400.763367 390.890045,400.075348 
	C397.180328,396.505920 403.858704,393.342133 409.363159,388.782867 
	C412.139038,386.483643 417.364014,385.277832 416.933899,379.910095 
	C416.933899,379.910095 417.001160,379.949432 417.333679,379.936279 
	C424.425964,376.625885 430.987762,373.126923 432.941956,364.932678 
	C432.941956,364.932678 432.996765,365.000000 433.334869,364.961609 
	C437.061035,362.416138 441.255280,360.514984 443.682404,357.285645 
	C450.334564,348.434814 456.411713,339.131775 462.334412,329.766113 
	C463.907410,327.278625 464.102722,323.919952 464.930573,320.961273 
	C464.930573,320.961273 464.968811,320.961731 465.301819,320.893097 
	C466.649292,319.617828 467.803101,318.501312 468.652527,317.187958 
	C471.397034,312.944305 474.029663,308.628296 476.524506,304.630066 
	C479.560242,305.153687 481.028534,310.297546 483.656250,305.628906 
	C486.074799,301.331909 488.494324,297.034332 490.823029,292.688568 
	C491.591858,291.253876 492.300568,289.709259 492.592712,288.132599 
	C492.721222,287.439056 491.884369,286.350861 491.194275,285.823242 
	C490.900696,285.598785 489.622162,286.161316 489.195953,286.691559 
	C486.056580,290.597168 483.019562,294.585052 479.950317,298.547028 
	C479.514130,293.967590 479.764984,289.688721 483.487610,286.190704 
	C487.156403,282.743225 491.552490,279.680634 491.945831,273.927429 
	C491.945831,273.927429 491.969604,273.991791 492.282532,273.881165 
	C493.994019,272.047760 495.397705,270.329102 496.789307,268.600708 
	C497.746613,267.411713 498.687164,266.209229 499.710083,265.458984 
	C499.867126,268.323303 499.949280,270.741425 500.031403,273.159576 
M475.207764,320.292786 
	C475.586060,320.109467 475.964325,319.926147 476.342621,319.742828 
	C476.069397,319.456970 475.796173,319.171143 475.522919,318.885284 
	C475.327057,319.259796 475.131195,319.634308 475.207764,320.292786 
z"/>
<path fill="#28531C" opacity="1.000000" stroke="none" 
	d="
M386.001221,355.000000 
	C382.559418,353.756348 380.581421,355.394928 378.749237,358.695618 
	C373.813995,359.119537 372.880188,357.010468 373.675903,352.944061 
	C375.037750,345.984467 375.820374,338.912415 377.135529,331.942139 
	C377.426788,330.398285 378.713165,328.866852 379.906860,327.705383 
	C382.344299,325.333649 382.507874,320.450531 379.624084,319.794739 
	C373.753418,318.459656 374.419739,314.325958 375.938171,310.997498 
	C379.383820,303.444519 377.274597,295.505005 376.175873,288.565033 
	C374.503571,278.002014 370.975830,267.166748 363.136932,258.757721 
	C362.138275,257.686432 360.753662,256.155731 360.883972,254.986816 
	C361.621033,248.375595 356.606567,244.770691 353.340942,240.470917 
	C349.910461,235.954086 345.640991,232.034195 341.482056,228.125992 
	C338.986847,225.781189 336.001587,223.957870 333.236572,221.900192 
	C332.501678,225.604279 331.744659,229.304291 331.061249,233.017853 
	C330.980133,233.458664 331.254974,233.992294 331.442413,234.451187 
	C335.052246,243.288116 338.823730,252.062561 342.252899,260.968811 
	C346.101746,270.965027 349.581085,281.102875 353.346527,291.132050 
	C355.083801,295.759094 357.196381,300.244446 358.975800,304.856873 
	C359.567535,306.390656 359.651245,308.120453 359.967163,309.760620 
	C358.416870,309.600037 356.691223,309.824646 355.346436,309.212555 
	C349.337708,306.477570 344.088379,302.764557 339.030090,298.343903 
	C329.104309,289.669312 321.554047,279.666534 316.638000,267.446106 
	C315.124329,263.683350 312.294220,260.450195 310.066895,256.974579 
	C310.031769,256.554291 309.996643,256.133972 310.060364,255.155975 
	C309.827240,253.424210 309.495270,252.250168 309.163330,251.076111 
	C306.595428,236.998947 306.403931,222.915390 309.396790,208.220215 
	C310.835236,204.024765 312.126862,200.478897 312.957855,196.828156 
	C313.690887,193.607635 315.450409,192.405869 318.315826,193.722839 
	C323.797089,196.242081 329.170288,199.007202 334.507629,201.823257 
	C336.544739,202.898056 338.362427,204.389572 340.276367,205.696732 
	C350.457672,212.650330 360.202148,220.035049 366.998413,230.662247 
	C368.141815,232.450195 370.329987,233.570038 372.035400,234.998581 
	C375.286530,241.087540 378.537659,247.176498 381.785858,253.866959 
	C381.522339,255.646011 381.261780,256.823547 380.972015,258.018799 
	C380.942810,258.036499 380.998901,257.998779 381.266602,258.237213 
	C382.952332,261.636475 384.370422,264.797302 385.788513,267.958099 
	C385.820618,268.751190 385.852692,269.544281 385.697327,271.099121 
	C385.351196,272.838135 385.084167,273.811829 385.051392,274.793335 
	C384.837585,281.194366 384.852936,287.395935 382.523804,293.775146 
	C380.793060,298.515411 382.075287,304.452179 382.470856,309.822479 
	C382.618774,311.830475 384.691040,313.711121 384.792908,315.705658 
	C385.179688,323.281830 384.967682,330.888275 385.338440,338.465851 
	C385.425690,340.248627 386.774231,343.320343 387.789185,343.425842 
	C389.899231,343.645172 392.450745,342.673859 394.275879,341.406891 
	C395.334717,340.671814 395.335022,338.411865 395.811646,336.838104 
	C395.811646,336.838104 395.733917,336.706818 396.068054,336.845337 
	C400.742157,338.344177 405.328613,333.476257 404.935059,327.927368 
	C404.935059,327.927368 404.964996,327.998108 405.292480,327.898926 
	C412.292603,324.421539 416.292328,318.593323 418.757507,311.947723 
	C420.344421,307.669647 422.302155,304.960815 427.030914,304.910889 
	C427.030914,304.910889 427.086639,304.933624 427.248932,305.180115 
	C427.659424,305.718018 427.907623,306.009399 428.155823,306.300751 
	C428.420685,306.255310 428.635162,306.338989 428.904785,307.035217 
	C430.028076,309.743439 431.045746,311.968292 432.063416,314.193115 
	C432.063416,314.193115 432.004852,314.585724 431.681030,314.873291 
	C429.798370,316.145416 427.060791,316.790955 430.215546,319.130920 
	C430.215546,319.130920 430.039490,319.563812 429.640594,319.883301 
	C428.010376,321.032471 426.384247,321.594910 425.612366,322.735474 
	C420.914368,329.677795 414.889618,335.470917 409.595428,341.840302 
	C405.337463,346.962952 400.031555,349.807190 394.853210,353.089630 
	C392.460327,354.606415 388.985504,354.416229 386.001221,355.000000 
M350.899963,223.454132 
	C350.291931,224.813217 349.683868,226.172287 349.075836,227.531372 
	C350.412262,227.676437 351.748688,227.821487 353.085114,227.966537 
	C352.586670,226.441696 352.088226,224.916870 350.899963,223.454132 
M380.817413,351.887512 
	C380.953308,351.914185 381.089172,351.940857 381.225067,351.967529 
	C381.131500,351.903656 381.037964,351.839752 380.817413,351.887512 
z"/>
<path fill="#2B5620" opacity="1.000000" stroke="none" 
	d="
M446.421204,283.672424 
	C444.112610,284.489380 441.628632,285.892700 439.857941,285.269440 
	C429.745758,281.710297 428.596649,278.131287 435.933533,269.419647 
	C443.949615,259.901550 449.033386,249.208862 452.218994,237.372101 
	C453.209167,233.692978 454.644897,230.135391 455.717560,226.475571 
	C455.953888,225.669281 455.514771,224.664993 455.174744,222.240829 
	C452.482391,226.409210 450.657593,229.532745 448.529724,232.433975 
	C446.838196,234.740265 444.776093,236.774734 442.878479,238.929886 
	C441.152130,236.275635 438.748535,233.839645 437.811218,230.931107 
	C432.377991,214.071716 429.991455,197.022202 434.170837,179.334152 
	C437.270752,166.214691 442.278595,154.015961 449.183472,142.549042 
	C451.308197,139.020508 453.764923,141.231934 455.043365,143.299957 
	C458.936676,149.597778 462.846802,155.941666 466.027222,162.612381 
	C473.373749,178.021149 476.519135,194.513077 474.824585,211.399261 
	C473.323853,226.354385 470.613892,241.357056 463.511261,254.885559 
	C458.390167,264.639862 452.256989,273.862885 446.421204,283.672424 
z"/>
<path fill="#27541B" opacity="1.000000" stroke="none" 
	d="
M243.080978,118.416229 
	C241.175201,108.590675 248.974884,94.229088 258.925598,89.751030 
	C273.342438,83.263084 285.539429,86.300507 296.856934,95.716896 
	C304.015778,101.673218 306.931824,110.123421 306.725891,119.147240 
	C306.339447,136.081741 297.458832,147.620895 281.250214,150.557770 
	C259.382324,154.520081 241.298874,140.380844 243.080978,118.416229 
z"/>
<path fill="#28531D" opacity="1.000000" stroke="none" 
	d="
M166.282654,220.898285 
	C152.297684,212.686630 152.466095,197.256409 157.707947,185.934570 
	C164.165405,171.987122 182.582748,170.586792 192.198761,176.565140 
	C205.294388,184.706833 209.371460,199.946152 200.982513,213.100784 
	C194.011826,224.031464 179.984299,228.183868 166.282654,220.898285 
z"/>
<path fill="#2D5522" opacity="1.000000" stroke="none" 
	d="
M310.056610,257.370697 
	C312.294220,260.450195 315.124329,263.683350 316.638000,267.446106 
	C321.554047,279.666534 329.104309,289.669312 339.030090,298.343903 
	C344.088379,302.764557 349.337708,306.477570 355.346436,309.212555 
	C356.691223,309.824646 358.416870,309.600037 359.967163,309.760620 
	C359.651245,308.120453 359.567535,306.390656 358.975800,304.856873 
	C357.196381,300.244446 355.083801,295.759094 353.346527,291.132050 
	C349.581085,281.102875 346.101746,270.965027 342.252899,260.968811 
	C338.823730,252.062561 335.052246,243.288116 331.442413,234.451187 
	C331.254974,233.992294 330.980133,233.458664 331.061249,233.017853 
	C331.744659,229.304291 332.501678,225.604279 333.236572,221.900192 
	C336.001587,223.957870 338.986847,225.781189 341.482056,228.125992 
	C345.640991,232.034195 349.910461,235.954086 353.340942,240.470917 
	C356.606567,244.770691 361.621033,248.375595 360.883972,254.986816 
	C360.753662,256.155731 362.138275,257.686432 363.136932,258.757721 
	C370.975830,267.166748 374.503571,278.002014 376.175873,288.565033 
	C377.274597,295.505005 379.383820,303.444519 375.938171,310.997498 
	C374.419739,314.325958 373.753418,318.459656 379.624084,319.794739 
	C382.507874,320.450531 382.344299,325.333649 379.906860,327.705383 
	C378.713165,328.866852 377.426788,330.398285 377.135529,331.942139 
	C375.820374,338.912415 375.037750,345.984467 373.675903,352.944061 
	C372.880188,357.010468 373.813995,359.119537 378.598938,358.993103 
	C378.455688,362.428375 377.351349,364.950775 372.969269,364.398895 
	C369.455200,363.956360 368.624542,366.358551 369.547913,369.211578 
	C370.353882,371.701782 371.834167,373.968658 372.713135,376.442017 
	C373.336761,378.196869 373.455383,380.131195 373.799408,381.985443 
	C373.262909,382.140961 372.726410,382.296478 372.189880,382.451996 
	C370.984131,380.644257 369.778351,378.836517 368.650482,377.145569 
	C365.236450,382.157379 361.939697,386.997070 358.285889,391.884949 
	C364.466064,378.144836 368.453735,363.525726 371.839813,348.729645 
	C372.348206,346.508118 371.980225,344.086029 372.353058,340.984802 
	C372.745422,330.780151 372.802368,321.347443 372.859314,311.914703 
	C372.752655,305.745941 372.998352,299.546600 372.465881,293.414825 
	C371.361023,280.692413 366.009888,269.198364 359.844696,258.426056 
	C353.545898,247.420242 345.713684,237.236801 335.245270,229.116089 
	C343.773834,258.011566 354.793396,286.023590 365.143036,314.261688 
	C364.854706,314.740021 364.566376,315.218384 364.278015,315.696747 
	C360.021179,314.394409 355.507477,313.618286 351.556274,311.689758 
	C340.315521,306.203186 330.910492,298.158691 323.495422,288.194489 
	C316.782898,279.174408 312.401550,268.850922 310.056610,257.370697 
z"/>
<path fill="#29541D" opacity="1.000000" stroke="none" 
	d="
M386.147278,178.984314 
	C386.121887,178.528793 386.096527,178.073273 386.142273,176.962280 
	C385.445831,171.474777 384.678223,166.642746 383.910583,161.810715 
	C383.981934,160.755386 384.053284,159.700043 384.389954,158.035904 
	C384.763916,155.940506 384.872467,154.453934 384.981049,152.967346 
	C385.044342,151.878220 385.107666,150.789108 385.481750,149.114960 
	C386.609467,146.996689 387.426422,145.463440 388.243347,143.930176 
	C388.243347,143.930176 388.496094,143.950836 388.944489,143.967712 
	C389.607697,143.974411 389.822479,143.964249 390.037262,143.954086 
	C390.037262,143.954086 390.007874,144.001495 390.156616,144.208221 
	C390.616943,144.604065 390.928467,144.793182 391.240021,144.982285 
	C391.240021,144.982285 391.618500,145.006744 391.956421,145.222992 
	C392.527313,145.666382 392.788483,145.854324 393.077820,146.003067 
	C393.077820,146.003067 393.002930,145.981506 393.104553,146.280212 
	C395.818176,148.047791 398.430145,149.516693 401.042145,150.985580 
	C401.566376,151.123398 402.090607,151.261215 402.847473,151.922058 
	C403.752258,153.292023 404.424438,154.138977 405.096649,154.985931 
	C405.096649,154.985931 405.019745,154.992401 405.199432,155.224976 
	C406.307739,155.968674 407.236389,156.479782 408.165009,156.990906 
	C410.439178,160.037048 412.713348,163.083176 415.152161,166.693344 
	C415.562225,167.509781 415.807648,167.762192 416.053070,168.014618 
	C416.053070,168.014618 415.984070,168.008408 416.134186,168.183273 
	C416.521576,168.601868 416.758881,168.845596 416.996155,169.089325 
	C416.996155,169.089325 417.056671,169.313400 416.988556,169.888931 
	C417.119293,172.274490 416.955719,174.222107 417.581421,175.870071 
	C419.955841,182.123672 419.090057,188.181213 417.369415,194.398743 
	C416.373505,197.997269 414.355011,199.307861 410.896942,199.030396 
	C404.377441,198.507278 399.336365,195.220795 395.238708,190.385406 
	C392.097595,186.678802 389.169891,182.791351 386.147278,178.984314 
z"/>
<path fill="#315725" opacity="1.000000" stroke="none" 
	d="
M344.877289,384.691895 
	C340.957733,382.111084 336.838928,379.288513 332.804077,376.350647 
	C329.438049,373.899750 326.170471,371.313660 322.855408,368.784515 
	C320.478729,373.110352 323.307037,378.628601 327.892883,378.732544 
	C331.316895,378.810120 333.517059,380.127533 333.277374,384.628326 
	C331.303406,383.946777 329.714142,383.398041 327.097626,382.494629 
	C333.640259,393.119110 343.825470,398.698273 352.031586,407.212006 
	C348.568451,416.114838 342.586761,423.245758 334.288208,428.918488 
	C338.865356,422.229706 343.799988,415.505035 348.936737,408.504974 
	C343.896362,404.609070 339.645081,401.019928 335.092560,397.865570 
	C324.714020,390.674591 320.016907,380.425537 316.612793,368.545959 
	C314.090637,359.744171 309.412842,351.169373 304.030579,343.691681 
	C299.003662,336.707672 292.386383,330.467804 285.382019,325.404144 
	C275.552338,318.297913 265.110596,311.758606 254.184052,306.539886 
	C245.803619,302.537231 236.290298,300.874725 227.231735,298.347382 
	C225.135361,297.762512 222.838852,297.894989 220.634430,297.697388 
	C220.481415,298.117950 220.328400,298.538513 220.175385,298.959076 
	C221.391876,300.076874 222.608368,301.194672 223.950165,302.623047 
	C220.579437,302.697083 215.502762,303.826508 215.589127,298.656921 
	C215.676895,293.402588 220.945877,293.798737 224.561066,294.169586 
	C228.614685,294.585388 232.539124,296.188629 236.541702,297.187286 
	C249.503708,300.421600 262.022125,304.660706 273.005920,312.605865 
	C274.141815,313.427551 275.794067,313.526581 277.196472,313.991821 
	C278.112213,314.295624 279.657166,314.468842 279.815521,315.018677 
	C281.586639,321.168610 287.960602,321.050140 291.834442,324.210999 
	C296.345276,327.891632 300.406189,332.259277 304.072754,336.804413 
	C308.579742,342.391327 312.613953,348.379883 316.565247,354.383881 
	C317.976654,356.528503 318.400391,359.299988 319.575134,361.634247 
	C320.081787,362.641022 321.350677,363.264221 322.273285,364.061676 
	C323.022522,362.894989 324.596283,361.552917 324.391327,360.589142 
	C322.650665,352.405151 321.377502,343.986084 318.400818,336.238068 
	C315.297974,328.161560 311.683380,319.670685 306.074585,313.319794 
	C298.771637,305.050659 292.397003,295.475159 281.875641,290.221802 
	C278.420380,288.496552 276.013397,284.671814 273.058441,281.465515 
	C278.808868,284.713409 285.033966,287.788788 290.363586,291.997986 
	C301.984985,301.176239 311.544922,312.196564 317.745392,325.880096 
	C323.036591,337.557129 326.438354,349.785461 327.746155,362.470154 
	C328.290527,367.749878 331.835236,370.531006 334.680481,373.952667 
	C337.759796,377.655792 341.348083,380.935669 344.877289,384.691895 
z"/>
<path fill="#375B28" opacity="1.000000" stroke="none" 
	d="
M306.161011,66.321739 
	C313.256714,63.067986 320.282135,66.118576 327.312469,67.538406 
	C334.694427,69.029243 341.565063,71.878456 348.126831,75.860382 
	C351.273743,77.770058 355.791229,77.567497 359.723572,77.993736 
	C363.337311,78.385445 366.839630,78.231812 366.376404,83.650681 
	C366.277039,84.813553 368.375305,86.424690 369.782684,87.328934 
	C370.352875,87.695297 372.426636,86.974571 372.688202,86.306747 
	C373.228729,84.926521 373.629028,82.916077 372.999542,81.753860 
	C370.459869,77.064926 368.246094,72.747787 361.834473,70.948692 
	C354.140442,68.789749 346.129272,65.726593 340.916870,58.651535 
	C340.546173,58.148399 339.747040,57.458313 339.331207,57.566006 
	C332.464996,59.344185 328.489807,53.053097 322.740692,51.611237 
	C319.851196,50.886566 317.253448,48.717957 314.721313,46.923546 
	C311.847321,44.886875 309.300171,44.218575 307.404877,47.587795 
	C301.126801,42.097935 293.969666,40.810745 286.463776,40.011204 
	C280.442383,39.369785 274.509491,37.897446 268.319946,36.519478 
	C275.060486,34.787762 281.613556,35.808685 288.398346,38.079941 
	C294.036621,39.967403 300.467865,39.399555 306.213531,41.069561 
	C320.853210,45.324642 335.351898,50.144676 348.539948,58.053646 
	C356.617157,62.897591 365.086731,67.316322 372.398865,73.154907 
	C384.330963,82.682465 396.241364,92.621674 400.134491,108.579071 
	C400.432922,109.802307 399.980347,111.208748 399.876862,112.530029 
	C398.728577,112.129372 397.418549,111.961021 396.457245,111.291779 
	C387.721344,105.209930 379.215546,98.780159 370.296692,92.984222 
	C363.837891,88.786980 356.981964,85.140137 350.072540,81.712723 
	C341.895386,77.656464 333.650970,73.601555 325.090546,70.498260 
	C319.175293,68.353912 312.675018,67.823509 306.161011,66.321739 
z"/>
<path fill="#3A5930" opacity="1.000000" stroke="none" 
	d="
M30.162773,287.473694 
	C30.668001,287.524475 31.359575,287.927399 31.536673,288.491821 
	C34.009369,296.372192 36.526146,304.241943 38.797333,312.181427 
	C40.842072,319.329346 42.250126,326.677094 44.618519,333.707794 
	C45.952549,337.667938 48.699818,341.143738 50.741516,344.875427 
	C55.435944,353.455627 59.407497,362.530487 64.944626,370.523254 
	C70.748825,378.901520 77.927765,386.348755 84.712128,394.020447 
	C90.930069,401.051666 97.424301,407.838531 103.792450,414.737061 
	C104.347511,415.338318 104.771744,416.109955 105.422569,416.565643 
	C114.015259,422.581818 122.296982,429.139313 131.328369,434.410187 
	C146.919891,443.509735 162.357071,453.030945 180.225952,457.525360 
	C190.147049,460.020721 199.744980,463.791260 209.651840,466.356506 
	C215.532059,467.879089 221.751404,468.046997 227.778549,469.060272 
	C233.410065,470.007050 238.989120,471.265900 244.799515,472.692993 
	C231.762314,471.172516 218.355667,470.100433 205.315872,467.312439 
	C191.748627,464.411713 178.163666,460.801483 165.277054,455.742340 
	C153.420837,451.087769 142.207230,444.555450 131.225525,437.989044 
	C122.138489,432.555481 113.280205,426.474060 105.259315,419.586517 
	C93.917892,409.847565 83.094681,399.562561 73.696114,387.684631 
	C62.486160,373.517487 52.576897,358.728577 45.410824,342.173462 
	C38.409595,325.999207 33.704563,309.085388 30.012495,291.883881 
	C29.741512,290.621368 30.063560,289.231567 30.162773,287.473694 
z"/>
<path fill="#2D5522" opacity="1.000000" stroke="none" 
	d="
M386.000000,355.375275 
	C388.985504,354.416229 392.460327,354.606415 394.853210,353.089630 
	C400.031555,349.807190 405.337463,346.962952 409.595428,341.840302 
	C414.889618,335.470917 420.914368,329.677795 425.612366,322.735474 
	C426.384247,321.594910 428.010376,321.032471 429.567566,320.105286 
	C423.101715,333.871307 413.119202,345.010956 400.651489,353.963531 
	C397.055603,356.545502 393.011536,358.519012 389.507935,361.207947 
	C387.338623,362.872894 384.938232,365.074188 384.124054,367.526794 
	C379.913177,380.211853 376.572906,393.205750 369.363983,404.705017 
	C368.914551,405.421936 369.133850,406.558105 368.975372,408.182251 
	C374.483490,405.731506 379.410706,403.539215 384.671936,401.244080 
	C383.110748,406.365417 371.186218,412.001892 367.335938,411.234100 
	C365.845581,410.936920 364.047882,409.437622 363.512146,408.052124 
	C363.149170,407.113434 364.617523,405.330902 365.490417,404.082062 
	C366.778137,402.239655 368.580841,400.700226 369.598633,398.738373 
	C371.500275,395.072998 373.312744,391.297119 374.553070,387.374542 
	C375.445160,384.553345 375.369049,381.421600 375.680603,378.423767 
	C375.780762,377.459747 375.391235,375.835754 375.816040,375.606171 
	C381.838928,372.351990 380.507202,365.312958 384.109619,360.198273 
	C385.018890,359.169159 385.502716,358.585693 385.986572,358.002258 
	C385.990631,357.251678 385.994690,356.501129 386.000000,355.375275 
z"/>
<path fill="#2D5623" opacity="1.000000" stroke="none" 
	d="
M480.097504,344.103088 
	C481.072296,340.577454 481.444519,337.310913 477.750031,334.832733 
	C476.955200,334.299561 476.450104,332.333099 476.799988,331.395905 
	C477.106934,330.573639 478.751892,329.974365 479.889465,329.788391 
	C483.969788,329.121307 487.168976,325.685608 486.483521,321.564972 
	C485.906708,318.097656 487.213043,315.843903 488.835236,312.970062 
	C490.541168,309.947937 490.434174,305.892792 491.070740,302.280487 
	C491.422699,300.283203 490.943756,297.342621 492.102936,296.426941 
	C496.372375,293.054413 496.122101,288.328796 496.972748,283.856476 
	C497.431763,281.443207 498.033325,279.057098 498.770874,276.343842 
	C499.271881,277.946777 500.044342,279.927032 499.800171,281.772766 
	C497.421753,299.752319 493.996582,317.507385 487.059265,334.374847 
	C485.752960,337.551025 483.723969,340.429993 481.585205,343.762451 
	C480.793823,344.086884 480.445648,344.095001 480.097504,344.103088 
z"/>
<path fill="#3E5C2F" opacity="1.000000" stroke="none" 
	d="
M300.752930,460.049133 
	C300.244415,461.595032 299.279785,463.138336 298.556610,464.787476 
	C298.129517,465.761414 297.578583,467.245178 298.005310,467.875946 
	C298.461823,468.550720 300.080780,468.887543 301.056396,468.692352 
	C309.495026,467.003815 317.955078,465.371826 326.303925,463.300507 
	C333.162231,461.598999 339.992188,459.636597 346.629272,457.224396 
	C356.379456,453.680817 365.929047,449.588287 375.605286,445.835846 
	C377.736511,445.009338 380.040253,444.627655 382.673706,444.039612 
	C378.487396,446.597015 374.139069,449.854126 369.250336,451.584625 
	C354.206146,456.910034 339.149231,462.403290 323.723572,466.383057 
	C311.281891,469.592957 298.298157,470.701813 285.554901,472.742798 
	C285.249298,471.974091 284.943695,471.205414 284.638092,470.436707 
	C289.891510,466.988129 295.144928,463.539551 300.752930,460.049133 
z"/>
<path fill="#2D5623" opacity="1.000000" stroke="none" 
	d="
M491.643158,274.086792 
	C491.552490,279.680634 487.156403,282.743225 483.487610,286.190704 
	C479.764984,289.688721 479.514130,293.967590 479.950317,298.547028 
	C483.019562,294.585052 486.056580,290.597168 489.195953,286.691559 
	C489.622162,286.161316 490.900696,285.598785 491.194275,285.823242 
	C491.884369,286.350861 492.721222,287.439056 492.592712,288.132599 
	C492.300568,289.709259 491.591858,291.253876 490.823029,292.688568 
	C488.494324,297.034332 486.074799,301.331909 483.656250,305.628906 
	C481.028534,310.297546 479.560242,305.153687 476.524506,304.630066 
	C474.029663,308.628296 471.397034,312.944305 468.652527,317.187958 
	C467.803101,318.501312 466.649292,319.617828 465.287994,320.879395 
	C467.914703,314.327637 471.004028,307.769684 473.810944,301.092957 
	C475.133148,297.947754 475.386261,294.267975 477.067627,291.379852 
	C479.321167,287.508881 482.407623,284.102356 485.294769,280.627991 
	C487.163574,278.379028 489.315430,276.365265 491.643158,274.086792 
z"/>
<path fill="#3A5930" opacity="1.000000" stroke="none" 
	d="
M116.592850,79.892349 
	C113.632179,83.678337 110.527588,87.692741 106.906204,91.168739 
	C101.218376,96.628212 95.010612,101.546478 89.330299,107.013206 
	C78.587357,117.352188 70.329865,129.633286 62.503773,142.228638 
	C61.855515,143.271942 60.576305,143.923187 59.256134,144.855453 
	C61.593491,139.738892 63.753830,134.170776 67.053459,129.388779 
	C72.308937,121.772263 78.181938,114.562561 84.084160,107.420792 
	C86.546806,104.440971 89.751694,102.073860 92.623856,99.433342 
	C97.798729,94.675827 102.874741,89.803169 108.200310,85.220627 
	C110.615997,83.141975 113.529510,81.641884 116.592850,79.892349 
z"/>
<path fill="#2D5522" opacity="1.000000" stroke="none" 
	d="
M395.467163,336.812653 
	C395.335022,338.411865 395.334717,340.671814 394.275879,341.406891 
	C392.450745,342.673859 389.899231,343.645172 387.789185,343.425842 
	C386.774231,343.320343 385.425690,340.248627 385.338440,338.465851 
	C384.967682,330.888275 385.179688,323.281830 384.792908,315.705658 
	C384.691040,313.711121 382.618774,311.830475 382.470856,309.822479 
	C382.075287,304.452179 380.793060,298.515411 382.523804,293.775146 
	C384.852936,287.395935 384.837585,281.194366 385.051392,274.793335 
	C385.084167,273.811829 385.351196,272.838135 385.663086,271.494934 
	C385.825684,280.529358 385.806000,289.929871 385.859222,299.329987 
	C385.879486,302.904327 385.804688,306.509277 386.229065,310.045532 
	C387.406036,319.853149 388.822632,329.632050 390.223358,340.006165 
	C391.615692,339.091370 393.369171,337.939301 395.467163,336.812653 
z"/>
<path fill="#3C5830" opacity="1.000000" stroke="none" 
	d="
M479.851013,344.330322 
	C480.445648,344.095001 480.793823,344.086884 481.403381,344.073975 
	C478.372467,350.996613 475.754883,358.360260 471.625824,364.746735 
	C465.787445,373.776947 459.256409,382.451477 452.225128,390.590027 
	C446.282501,397.468445 439.207153,403.368256 432.335388,409.877502 
	C434.612030,406.775574 437.082336,403.408691 439.783081,400.238068 
	C445.096039,394.000732 451.173920,388.310028 455.783539,381.601746 
	C463.723389,370.046844 470.777344,357.883453 478.226196,345.989899 
	C478.570435,345.440277 479.139954,345.031799 479.851013,344.330322 
z"/>
<path fill="#365626" opacity="1.000000" stroke="none" 
	d="
M372.148926,234.747101 
	C370.329987,233.570038 368.141815,232.450195 366.998413,230.662247 
	C360.202148,220.035049 350.457672,212.650330 340.276367,205.696732 
	C338.362427,204.389572 336.544739,202.898056 334.507629,201.823257 
	C329.170288,199.007202 323.797089,196.242081 318.315826,193.722839 
	C315.450409,192.405869 313.690887,193.607635 312.957855,196.828156 
	C312.126862,200.478897 310.835236,204.024765 309.453857,207.799377 
	C310.142395,202.666824 310.941925,197.304962 312.288147,192.084061 
	C312.495667,191.279175 315.444702,190.380981 316.736755,190.781433 
	C327.937836,194.253082 337.744537,200.328598 347.203400,207.177734 
	C356.650757,214.018555 364.556824,222.214493 371.109528,231.787659 
	C371.652863,232.581467 371.885468,233.587967 372.148926,234.747101 
z"/>
<path fill="#3A5930" opacity="1.000000" stroke="none" 
	d="
M246.951508,473.499512 
	C250.138367,471.493774 253.462646,469.616272 256.961609,468.157898 
	C273.130554,461.418610 287.343719,451.685059 300.438110,440.179626 
	C304.274048,436.809174 308.227081,433.572021 312.439575,430.185028 
	C308.176666,435.318909 304.293732,441.455658 298.873749,445.565247 
	C288.966339,453.077423 278.424561,459.874451 267.606903,466.018188 
	C261.338989,469.577942 254.017014,471.281769 246.951508,473.499512 
z"/>
<path fill="#2A4C20" opacity="1.000000" stroke="none" 
	d="
M112.901108,264.568817 
	C111.397034,259.712311 109.014900,254.461807 108.725456,249.098373 
	C108.121155,237.900894 108.512268,226.641754 108.716316,215.412003 
	C108.814278,210.020950 108.517204,204.366150 113.551941,200.150909 
	C112.885933,213.814957 111.520706,227.619598 111.114212,241.452408 
	C110.892860,248.984802 112.298820,256.565002 112.901108,264.568817 
z"/>
<path fill="#3A5930" opacity="1.000000" stroke="none" 
	d="
M58.561012,144.874420 
	C56.510025,150.493851 54.003490,156.040207 51.686504,161.664642 
	C49.012547,168.155624 46.499680,174.713104 43.929077,181.246506 
	C42.724617,184.307770 41.301281,187.310883 40.417351,190.463776 
	C39.046345,195.354065 38.190414,200.389160 36.807255,205.275421 
	C36.427479,206.617065 34.947868,207.647354 33.625771,208.883575 
	C35.060024,201.501831 36.325531,193.884064 38.749271,186.654617 
	C42.016586,176.908966 45.897503,167.338791 50.070274,157.939804 
	C52.135788,153.287323 55.443539,149.186356 58.561012,144.874420 
z"/>
<path fill="#415B37" opacity="1.000000" stroke="none" 
	d="
M386.114929,179.355560 
	C389.169891,182.791351 392.097595,186.678802 395.238708,190.385406 
	C399.336365,195.220795 404.377441,198.507278 410.896942,199.030396 
	C414.355011,199.307861 416.373505,197.997269 417.369415,194.398743 
	C419.090057,188.181213 419.955841,182.123672 417.581421,175.870071 
	C416.955719,174.222107 417.119293,172.274490 416.974976,170.004196 
	C422.223816,179.527374 422.091187,189.783920 417.908203,199.925385 
	C417.272675,201.466156 413.716278,203.042877 411.920258,202.663727 
	C399.910217,200.128433 390.837494,193.734894 386.771118,181.560806 
	C386.564392,180.941879 386.313141,180.337799 386.114929,179.355560 
z"/>
<path fill="#2D5623" opacity="1.000000" stroke="none" 
	d="
M464.646667,321.163940 
	C464.102722,323.919952 463.907410,327.278625 462.334412,329.766113 
	C456.411713,339.131775 450.334564,348.434814 443.682404,357.285645 
	C441.255280,360.514984 437.061035,362.416138 433.303284,364.931458 
	C438.207733,358.464752 443.812683,352.227020 448.668884,345.452576 
	C454.246277,337.672028 459.160522,329.416107 464.646667,321.163940 
z"/>
<path fill="#3A5930" opacity="1.000000" stroke="none" 
	d="
M30.300911,228.543457 
	C30.624016,230.630066 30.980286,233.105423 30.974630,235.579971 
	C30.942720,249.536926 30.835329,263.493805 30.719223,277.450409 
	C30.705706,279.075409 30.480021,280.698669 30.191650,282.641724 
	C29.413811,279.197845 28.797018,275.435028 28.011612,270.851624 
	C27.893888,261.091095 27.944775,252.151138 27.995663,243.211197 
	C28.719421,238.451401 29.443184,233.691620 30.300911,228.543457 
z"/>
<path fill="#2D5623" opacity="1.000000" stroke="none" 
	d="
M416.587524,379.978119 
	C417.364014,385.277832 412.139038,386.483643 409.363159,388.782867 
	C403.858704,393.342133 397.180328,396.505920 390.890045,400.075348 
	C389.677429,400.763367 388.020233,400.667999 386.156891,400.927734 
	C389.816620,398.252380 393.937836,395.656342 397.946838,392.897278 
	C404.085541,388.672577 410.146912,384.335510 416.587524,379.978119 
z"/>
<path fill="#3E5C2F" opacity="1.000000" stroke="none" 
	d="
M402.408264,433.087921 
	C404.696136,430.362335 407.255951,427.552856 410.016479,424.956879 
	C413.251038,421.915131 416.521912,418.877899 420.044922,416.189758 
	C422.212830,414.535614 424.881622,413.537903 427.867126,412.338806 
	C428.669678,412.651489 428.930573,412.870789 429.191528,413.090088 
	C421.972992,418.640717 414.762909,424.202332 407.529205,429.733093 
	C405.986542,430.912537 404.358002,431.979614 402.408264,433.087921 
z"/>
<path fill="#2D5522" opacity="1.000000" stroke="none" 
	d="
M426.922913,304.561523 
	C422.302155,304.960815 420.344421,307.669647 418.757507,311.947723 
	C416.292328,318.593323 412.292603,324.421539 405.263397,327.873749 
	C407.766724,323.541260 410.667725,319.160736 413.474304,314.720551 
	C415.999603,310.725372 418.421295,306.664703 421.347809,301.882629 
	C422.863220,302.528351 424.839050,303.370270 426.922913,304.561523 
z"/>
<path fill="#375B28" opacity="1.000000" stroke="none" 
	d="
M270.965088,62.772171 
	C272.608246,62.199978 274.261200,61.111778 275.892914,61.142765 
	C283.998108,61.296684 292.109283,61.595230 300.189484,62.217667 
	C301.800446,62.341766 303.285461,64.100845 304.903168,65.457672 
	C299.843964,65.292534 294.710144,64.775742 288.919739,63.789673 
	C282.497101,63.137657 276.731110,62.954914 270.965088,62.772171 
z"/>
<path fill="#2D5623" opacity="1.000000" stroke="none" 
	d="
M432.635834,365.087830 
	C430.987762,373.126923 424.425964,376.625885 417.295380,379.931000 
	C419.812134,377.114777 422.676697,374.266663 425.594818,371.474487 
	C427.804382,369.360321 430.082245,367.317535 432.635834,365.087830 
z"/>
<path fill="#3A5930" opacity="1.000000" stroke="none" 
	d="
M137.628708,65.877686 
	C137.199310,66.788940 136.633957,68.151215 135.614609,68.798164 
	C129.676010,72.567200 123.630844,76.168358 117.266327,79.901093 
	C120.652153,76.869026 124.232140,73.534409 128.189606,70.733055 
	C130.953186,68.776810 134.233521,67.550560 137.628708,65.877686 
z"/>
<path fill="#315725" opacity="1.000000" stroke="none" 
	d="
M333.648621,429.087830 
	C331.469849,436.471344 326.535950,441.943939 319.339844,445.561005 
	C318.954712,445.074921 318.929199,444.837738 318.903687,444.600555 
	C323.717133,439.482391 328.530609,434.364258 333.648621,429.087830 
z"/>
<path fill="#3E5C2F" opacity="1.000000" stroke="none" 
	d="
M383.391296,444.088562 
	C387.582611,437.904602 394.169067,435.065948 401.666748,433.073792 
	C395.955353,436.720245 389.861877,440.399719 383.391296,444.088562 
z"/>
<path fill="#315725" opacity="1.000000" stroke="none" 
	d="
M239.092087,313.644928 
	C232.994080,312.351562 226.851547,310.533844 224.126251,303.255615 
	C228.999603,306.384949 233.942474,309.871490 239.092087,313.644928 
z"/>
<path fill="#375B28" opacity="1.000000" stroke="none" 
	d="
M246.410004,65.865646 
	C250.710114,60.953674 256.483765,61.726700 262.598602,63.062332 
	C262.907318,63.458149 262.980988,63.904842 262.980988,63.904842 
	C257.582214,64.570656 252.183411,65.236473 246.410004,65.865646 
z"/>
<path fill="#2D5623" opacity="1.000000" stroke="none" 
	d="
M499.635254,265.012817 
	C498.687164,266.209229 497.746613,267.411713 496.789307,268.600708 
	C495.397705,270.329102 493.994019,272.047760 492.253113,273.863495 
	C493.220978,270.866821 494.531189,267.777191 496.083038,264.041504 
	C497.089935,261.708618 497.855225,260.021790 498.620514,258.334961 
	C498.958771,258.380920 499.296997,258.426910 499.635254,258.472900 
	C499.635254,260.652863 499.635254,262.832855 499.635254,265.012817 
z"/>
<path fill="#2D5522" opacity="1.000000" stroke="none" 
	d="
M404.631805,328.067078 
	C405.328613,333.476257 400.742157,338.344177 396.133270,336.805695 
	C398.685730,333.820648 401.507141,331.013733 404.631805,328.067078 
z"/>
<path fill="#3E5C2F" opacity="1.000000" stroke="none" 
	d="
M317.621399,446.050049 
	C316.536530,451.351562 312.866791,454.423828 307.289703,455.939941 
	C310.378143,452.701416 313.834076,449.426422 317.621399,446.050049 
z"/>
<path fill="#3A5930" opacity="1.000000" stroke="none" 
	d="
M171.536758,50.221104 
	C169.793045,55.640339 165.061874,54.736912 160.373871,54.981514 
	C163.680588,53.364948 167.427338,51.747677 171.536758,50.221104 
z"/>
<path fill="#CBD2B8" opacity="1.000000" stroke="none" 
	d="
M499.710114,265.458984 
	C499.635254,262.832855 499.635254,260.652863 499.635254,258.472900 
	C499.296997,258.426910 498.958771,258.380920 498.620514,258.334961 
	C497.855225,260.021790 497.089935,261.708618 496.169159,263.705200 
	C496.184326,260.769287 494.941559,256.561707 500.814423,257.138031 
	C500.814423,262.325592 500.814423,267.531158 500.422913,272.948151 
	C499.949280,270.741425 499.867126,268.323303 499.710114,265.458984 
z"/>
<path fill="#B8C7AB" opacity="1.000000" stroke="none" 
	d="
M372.488281,312.140869 
	C372.802368,321.347443 372.745422,330.780151 372.425720,340.528870 
	C372.147736,331.352264 372.132507,321.859619 372.488281,312.140869 
z"/>
<path fill="#B5CDB5" opacity="1.000000" stroke="none" 
	d="
M27.593588,243.360428 
	C27.944775,252.151138 27.893888,261.091095 27.780499,270.497101 
	C27.542500,261.811981 27.367006,252.660828 27.593588,243.360428 
z"/>
<path fill="#2D5522" opacity="1.000000" stroke="none" 
	d="
M381.001221,258.001099 
	C381.261780,256.823547 381.522339,255.646011 381.976868,254.158508 
	C383.416351,258.288116 384.661896,262.727692 385.847961,267.562683 
	C384.370422,264.797302 382.952332,261.636475 381.267151,258.237823 
	C381.000000,258.000000 381.001221,258.001099 381.001221,258.001099 
z"/>
<path fill="#B7CDB3" opacity="1.000000" stroke="none" 
	d="
M263.454529,63.932484 
	C262.980988,63.904842 262.907318,63.458149 262.965698,63.239311 
	C265.379700,62.976673 267.735260,62.932877 270.527954,62.830627 
	C276.731110,62.954914 282.497101,63.137657 288.566711,63.597443 
	C280.556213,63.903030 272.242126,63.931576 263.454529,63.932484 
z"/>
<path fill="#415B37" opacity="1.000000" stroke="none" 
	d="
M383.587433,162.058594 
	C384.678223,166.642746 385.445831,171.474777 386.127441,176.620392 
	C385.115723,172.058136 384.190002,167.182297 383.587433,162.058594 
z"/>
<path fill="#2A4C20" opacity="1.000000" stroke="none" 
	d="
M116.088181,280.523926 
	C114.960014,276.542572 113.816315,272.135010 112.767059,267.415955 
	C113.931892,271.435547 115.002274,275.766632 116.088181,280.523926 
z"/>
<path fill="#315725" opacity="1.000000" stroke="none" 
	d="
M352.070435,389.610657 
	C348.198120,391.358765 345.550171,390.383850 345.035828,385.333160 
	C347.305725,386.409485 349.593353,387.863678 352.070435,389.610657 
z"/>
<path fill="#3A5930" opacity="1.000000" stroke="none" 
	d="
M149.803223,58.957359 
	C148.156281,63.597713 143.801086,64.144203 139.209061,64.982574 
	C142.341537,62.965755 145.881149,60.955978 149.803223,58.957359 
z"/>
<path fill="#415B37" opacity="1.000000" stroke="none" 
	d="
M400.884521,150.677048 
	C398.430145,149.516693 395.818176,148.047791 393.115387,146.242783 
	C395.592041,147.393951 398.159485,148.881241 400.884521,150.677048 
z"/>
<path fill="#2D5522" opacity="1.000000" stroke="none" 
	d="
M432.430542,314.128723 
	C431.045746,311.968292 430.028076,309.743439 428.992981,307.192444 
	C432.297150,308.178375 435.591278,309.505096 432.430542,314.128723 
z"/>
<path fill="#3A5930" opacity="1.000000" stroke="none" 
	d="
M159.623413,54.940422 
	C157.227448,56.274799 154.455963,57.621227 151.275391,58.978275 
	C153.660156,57.643421 156.454041,56.297947 159.623413,54.940422 
z"/>
<path fill="#3A5930" opacity="1.000000" stroke="none" 
	d="
M31.668179,216.135071 
	C31.554424,218.463821 31.145693,221.038910 30.466839,223.806808 
	C30.588881,221.460220 30.981041,218.920822 31.668179,216.135071 
z"/>
<path fill="#2A4C20" opacity="1.000000" stroke="none" 
	d="
M119.138138,289.563599 
	C118.130646,287.219177 117.098679,284.481079 116.063492,281.334808 
	C117.078072,283.674377 118.095879,286.422180 119.138138,289.563599 
z"/>
<path fill="#3E5C2F" opacity="1.000000" stroke="none" 
	d="
M306.632324,455.937683 
	C305.498108,457.319000 304.011261,458.724884 302.240173,460.053192 
	C303.397217,458.637817 304.838440,457.300018 306.632324,455.937683 
z"/>
<path fill="#2D5522" opacity="1.000000" stroke="none" 
	d="
M430.508362,318.941162 
	C427.060791,316.790955 429.798370,316.145416 431.660645,315.070740 
	C431.576447,316.237518 431.188782,317.494446 430.508362,318.941162 
z"/>
<path fill="#415B37" opacity="1.000000" stroke="none" 
	d="
M388.009583,143.642029 
	C387.426422,145.463440 386.609467,146.996689 385.540039,148.710052 
	C386.116974,147.044724 386.946381,145.199295 388.009583,143.642029 
z"/>
<path fill="#3C5830" opacity="1.000000" stroke="none" 
	d="
M429.488220,412.929382 
	C428.930573,412.870789 428.669678,412.651489 428.225586,412.255981 
	C429.162598,411.394257 430.282867,410.708679 431.761993,410.046143 
	C431.342224,410.969025 430.563568,411.868866 429.488220,412.929382 
z"/>
<path fill="#415B37" opacity="1.000000" stroke="none" 
	d="
M384.684753,153.195129 
	C384.872467,154.453934 384.763916,155.940506 384.449402,157.643707 
	C384.291779,156.381180 384.340118,154.902039 384.684753,153.195129 
z"/>
<path fill="#2D5522" opacity="1.000000" stroke="none" 
	d="
M309.113586,251.430115 
	C309.495270,252.250168 309.827240,253.424210 310.028687,254.841217 
	C309.620087,253.984161 309.341980,252.884140 309.113586,251.430115 
z"/>
<path fill="#415B37" opacity="1.000000" stroke="none" 
	d="
M407.978058,156.711945 
	C407.236389,156.479782 406.307739,155.968674 405.196259,155.186523 
	C405.939301,155.421326 406.865204,155.927170 407.978058,156.711945 
z"/>
<path fill="#415B37" opacity="1.000000" stroke="none" 
	d="
M405.186584,154.640106 
	C404.424438,154.138977 403.752258,153.292023 403.048035,152.107025 
	C403.769470,152.610748 404.523010,153.452515 405.186584,154.640106 
z"/>
<path fill="#2D5623" opacity="1.000000" stroke="none" 
	d="
M499.291077,275.140625 
	C499.286804,274.843475 499.543121,274.517426 500.018127,273.969818 
	C500.008423,274.202728 499.780029,274.657227 499.291077,275.140625 
z"/>
<path fill="#3A5930" opacity="1.000000" stroke="none" 
	d="
M32.757767,211.149353 
	C32.819702,211.501816 32.634983,212.009232 32.299232,212.742767 
	C32.269169,212.414017 32.390141,211.859177 32.757767,211.149353 
z"/>
<path fill="#2D5522" opacity="1.000000" stroke="none" 
	d="
M357.654907,391.914581 
	C357.447510,392.033661 356.902130,392.136536 356.164032,392.127258 
	C356.419830,391.976166 356.868408,391.937286 357.654907,391.914581 
z"/>
<path fill="#3E5C2F" opacity="1.000000" stroke="none" 
	d="
M318.677002,444.774597 
	C318.929199,444.837738 318.954712,445.074921 319.015503,445.668640 
	C318.865753,446.020325 318.680756,446.015411 318.220490,445.973999 
	C318.113617,445.607910 318.281952,445.278259 318.677002,444.774597 
z"/>
<path fill="#3A5930" opacity="1.000000" stroke="none" 
	d="
M173.787537,49.089615 
	C173.848831,49.304932 173.610275,49.533691 173.129700,49.862698 
	C173.121567,49.711655 173.321579,49.425026 173.787537,49.089615 
z"/>
<path fill="#3A5930" opacity="1.000000" stroke="none" 
	d="
M245.100098,473.104706 
	C244.998413,472.993103 245.464478,472.996277 245.697235,472.987000 
	C245.929993,472.977722 245.609436,473.278961 245.609436,473.278961 
	C245.609436,473.278961 245.201797,473.216309 245.100098,473.104706 
z"/>
<path fill="#2D5522" opacity="1.000000" stroke="none" 
	d="
M428.072571,306.003143 
	C427.907623,306.009399 427.659424,305.718018 427.233032,305.205688 
	C427.366333,305.225037 427.677826,305.465302 428.072571,306.003143 
z"/>
<path fill="#415B37" opacity="1.000000" stroke="none" 
	d="
M416.928711,168.823090 
	C416.758881,168.845596 416.521576,168.601868 416.138580,168.148926 
	C416.282349,168.145416 416.571808,168.351135 416.928711,168.823090 
z"/>
<path fill="#415B37" opacity="1.000000" stroke="none" 
	d="
M415.958740,167.755020 
	C415.807648,167.762192 415.562225,167.509781 415.156494,167.046326 
	C415.285583,167.055328 415.575012,167.275375 415.958740,167.755020 
z"/>
<path fill="#415B37" opacity="1.000000" stroke="none" 
	d="
M392.995056,145.750092 
	C392.788483,145.854324 392.527313,145.666382 392.144226,145.249329 
	C392.300171,145.205307 392.606232,145.351212 392.995056,145.750092 
z"/>
<path fill="#415B37" opacity="1.000000" stroke="none" 
	d="
M391.133179,144.709564 
	C390.928467,144.793182 390.616943,144.604065 390.161316,144.181015 
	C390.353577,144.110336 390.689972,144.273590 391.133179,144.709564 
z"/>
<path fill="#415B37" opacity="1.000000" stroke="none" 
	d="
M389.914429,143.787201 
	C389.822479,143.964249 389.607697,143.974411 389.069580,143.988434 
	C389.094727,143.868286 389.443176,143.744293 389.914429,143.787201 
z"/>
<path fill="#315725" opacity="1.000000" stroke="none" 
	d="
M309.581268,337.149384 
	C309.871704,336.213379 310.282990,335.527771 310.694275,334.842133 
	C311.038635,335.486572 311.382996,336.130981 311.727356,336.775421 
	C311.052277,336.983551 310.377197,337.191650 309.581268,337.149384 
z"/>
<path fill="#2D5623" opacity="1.000000" stroke="none" 
	d="
M475.071533,320.150818 
	C475.131195,319.634308 475.327057,319.259796 475.522949,318.885284 
	C475.796173,319.171143 476.069397,319.456970 476.342621,319.742828 
	C475.964325,319.926147 475.586060,320.109467 475.071533,320.150818 
z"/>
<path fill="#28531C" opacity="1.000000" stroke="none" 
	d="
M385.722321,358.125519 
	C385.502716,358.585693 385.018890,359.169159 384.270386,359.875732 
	C384.489838,359.415497 384.973969,358.832153 385.722321,358.125519 
z"/>
<path fill="#2D5522" opacity="1.000000" stroke="none" 
	d="
M351.244873,223.423096 
	C352.088226,224.916870 352.586670,226.441696 353.085114,227.966537 
	C351.748688,227.821487 350.412262,227.676437 349.075836,227.531372 
	C349.683868,226.172287 350.291931,224.813217 351.244873,223.423096 
z"/>
<path fill="#2D5522" opacity="1.000000" stroke="none" 
	d="
M380.880920,351.831696 
	C381.037964,351.839752 381.131500,351.903656 381.225067,351.967529 
	C381.089172,351.940857 380.953308,351.914185 380.880920,351.831696 
z"/>
<path fill="#2D5522" opacity="1.000000" stroke="none" 
	d="
M380.999451,257.999390 
	C380.998901,257.998779 380.942810,258.036499 380.972015,258.018799 
	C381.001221,258.001099 381.000000,258.000000 380.999451,257.999390 
z"/>
</svg>